Coordinates
version=1
nRows=18
nColumns=22
inDegrees=yes

Units are S.I. units (second, meters, Newtons, ...)
If the header above contains a line with 'inDegrees', this indicates whether rotational values are in degrees (yes) or radians (no).

endheader
time	pelvis_tilt	pelvis_list	pelvis_rotation	pelvis_tx	pelvis_ty	pelvis_tz	hip_flexion_r	hip_adduction_r	hip_rotation_r	knee_angle_r	ankle_angle_r	subtalar_angle_r	hip_flexion_l	hip_adduction_l	hip_rotation_l	knee_angle_l	ankle_angle_l	subtalar_angle_l	lumbar_extension	lumbar_bending	lumbar_rotation
      0.01000000	      0.43015564	      2.76760610	    175.41253234	      0.10987150	      1.01902616	      0.98771045	      9.70653649	      1.82072059	     -1.87536223	    -21.40969289	      9.62731254	     -2.42263504	      4.09661038	     -0.28827063	     -9.93650414	    -11.07661276	      9.83895382	     -2.74906493	    -12.06043627	      1.79895264	      0.51797527
      0.02000000	      0.43819491	      2.74936011	    175.38176848	      0.11031501	      1.01900607	      0.98802510	     10.01869571	      1.78754149	     -2.09662707	    -21.90392038	      9.77810638	     -2.39256563	      4.12462294	     -0.24794160	     -9.94077441	    -11.05926216	      9.79575983	     -2.76529172	    -12.14278185	      1.73631856	      0.39990658
      0.03000000	      0.46157816	      2.73392471	    175.35847193	      0.11080322	      1.01895827	      0.98837995	     10.38612241	      1.75438649	     -2.38223695	    -22.46826858	      9.97700113	     -2.32819253	      4.17748090	     -0.21059919	     -9.94305313	    -11.05035917	      9.76028908	     -2.79413111	    -12.21453735	      1.67220983	      0.24914137
      0.04000000	      0.50442447	      2.72983779	    175.34323561	      0.11130146	      1.01888935	      0.98875999	     10.78855605	      1.73251318	     -2.71746782	    -23.06116621	     10.20547950	     -2.20300782	      4.25341357	     -0.18610745	     -9.95098808	    -11.04388320	      9.73284497	     -2.83698534	    -12.26410805	      1.62272827	      0.06626385
      0.05000000	      0.51375865	      2.73060091	    175.34217304	      0.11177712	      1.01888132	      0.98914415	     11.14754731	      1.71515761	     -3.07571885	    -23.64858861	     10.50155400	     -2.07437852	      4.28493531	     -0.16066590	     -9.91444076	    -11.02394848	      9.69409341	     -2.86541301	    -12.35026023	      1.57194183	     -0.12254168
      0.06000000	      0.53624271	      2.74361691	    175.34763932	      0.11218042	      1.01887171	      0.98951340	     11.49727355	      1.71526258	     -3.45598035	    -24.20220402	     10.81325012	     -1.88107412	      4.32181292	     -0.14999587	     -9.88954850	    -10.99506211	      9.66416597	     -2.90267064	    -12.40576639	      1.53858197	     -0.32211073
      0.07000000	      0.54474512	      2.76777399	    175.35141172	      0.11249252	      1.01890366	      0.98984761	     11.79695131	      1.73649201	     -3.81351691	    -24.69975747	     11.13309353	     -1.63728311	      4.33794553	     -0.15385549	     -9.89541190	    -10.96944028	      9.63993311	     -2.94690895	    -12.45977325	      1.51745918	     -0.51848039
      0.08000000	      0.51774409	      2.79000868	    175.35469564	      0.11266680	      1.01901371	      0.99014057	     12.01164146	      1.76692776	     -4.13879346	    -25.12142256	     11.46343080	     -1.46882694	      4.27829155	     -0.14797715	     -9.87008124	    -10.88837964	      9.61122450	     -2.96763647	    -12.53015594	      1.48956517	     -0.69327585
      0.09000000	      0.48012429	      2.81861515	    175.35677924	      0.11273686	      1.01915768	      0.99037669	     12.16895164	      1.82128811	     -4.41348853	    -25.46417753	     11.76797724	     -1.27445917	      4.19933682	     -0.15246394	     -9.86877532	    -10.80688154	      9.58423725	     -2.99522115	    -12.59096938	      1.46725061	     -0.85363925
      0.10000000	      0.42556208	      2.85070927	    175.35293535	      0.11273502	      1.01932993	      0.99053254	     12.26356914	      1.90292292	     -4.60983706	    -25.72529654	     12.04793337	     -1.15793999	      4.10367592	     -0.16664250	     -9.89509620	    -10.74147075	      9.56647915	     -3.01208760	    -12.65590292	      1.44380232	     -0.99253655
      0.11000000	      0.36165115	      2.87458598	    175.35897411	      0.11264290	      1.01953150	      0.99064857	     12.30155168	      1.98685824	     -4.76999365	    -25.89816616	     12.24549720	     -0.91632874	      3.96864025	     -0.16763046	     -9.88297096	    -10.62488458	      9.52485075	     -3.03864587	    -12.71192359	      1.41108846	     -1.12788182
      0.12000000	      0.29117996	      2.89983109	    175.36027674	      0.11253484	      1.01972406	      0.99066739	     12.29466921	      2.09696357	     -4.84243115	    -25.99309444	     12.38398915	     -0.73064415	      3.83826543	     -0.17972292	     -9.89679690	    -10.53606482	      9.49631509	     -3.05013997	    -12.76916093	      1.37248966	     -1.23498778
      0.13000000	      0.22245120	      2.91847309	    175.36731653	      0.11241347	      1.01988958	      0.99061381	     12.25453270	      2.21803505	     -4.84604350	    -26.01461128	     12.44773014	     -0.57144141	      3.71642265	     -0.19112993	     -9.90078324	    -10.46051582	      9.46106358	     -3.04947141	    -12.81629303	      1.32356564	     -1.33231101
      0.14000000	      0.20746214	      2.91011002	    175.37928993	      0.11228903	      1.01992348	      0.99049757	     12.24989249	      2.32626204	     -4.79933689	    -25.98174384	     12.41172999	     -0.54083989	      3.67170869	     -0.18583083	     -9.91999565	    -10.41680371	      9.46275971	     -3.04962346	    -12.78777945	      1.24803333	     -1.44280349
      0.15000000	      0.10075657	      2.91974563	    175.39403081	      0.11213319	      1.02010528	      0.99032544	     12.08944301	      2.45708749	     -4.68414404	    -25.83820091	     12.25421649	     -0.31079232	      3.51221061	     -0.19397989	     -9.91598158	    -10.35106800	      9.43801950	     -3.04723163	    -12.86916995	      1.18280661	     -1.51442911
      0.16000000	      0.07847837	      2.88810323	    175.42244512	      0.11201658	      1.02009230	      0.99014051	     12.01442314	      2.54686158	     -4.55627259	    -25.67145278	     12.01351207	     -0.26022890	      3.47478744	     -0.16940451	     -9.88944569	    -10.33077314	      9.43113024	     -3.04770497	    -12.84503172	      1.08114498	     -1.59405676
      0.17000000	      0.02188263	      2.86406093	    175.45684102	      0.11185491	      1.02010374	      0.98994105	     11.85935828	      2.63744350	     -4.41065765	    -25.42931497	     11.71053809	     -0.24499284	      3.40041938	     -0.15349075	     -9.87825188	    -10.31698249	      9.44687763	     -3.04778491	    -12.85490186	      0.99396925	     -1.67898564
      0.18000000	      0.00517945	      2.80293148	    175.49926899	      0.11170840	      1.02001346	      0.98976036	     11.74284614	      2.67218353	     -4.29135850	    -25.17388497	     11.34045539	     -0.27852521	      3.38271479	     -0.10036298	     -9.83871693	    -10.32015513	      9.45840980	     -3.04093845	    -12.81367562	      0.87374450	     -1.74737373
